<svg width="133" height="40" viewBox="0 0 133 40" fill="none" xmlns="http://www.w3.org/2000/svg">
<rect x="0.5" y="0.5" width="132" height="39" rx="6.25" fill="black"/>
<rect x="0.5" y="0.5" width="132" height="39" rx="6.25" stroke="#A6A6A6"/>
<path d="M45.3957 25.4115H48.8914L47.64 22.0613C47.4677 21.5984 47.2984 21.0873 47.1314 20.5274C46.9808 21.0227 46.8165 21.5284 46.6389 22.0451L45.3957 25.4115ZM49.4888 27.0019H44.8064L43.6602 30.1342H41.6016L46.1869 18.4366H48.1325L52.8229 30.1342H50.6594L49.4888 27.0019Z" fill="white"/>
<path d="M58.8957 28.007C59.3021 27.4608 59.5053 26.6628 59.5053 25.6133C59.5053 24.6394 59.337 23.9328 59.0008 23.4941C58.6642 23.0555 58.2162 22.8363 57.6565 22.8363C57.269 22.8363 56.9112 22.9279 56.5829 23.1107C56.2546 23.2937 55.9424 23.5385 55.6464 23.8453V28.5116C55.8456 28.6083 56.077 28.6851 56.3408 28.7414C56.6045 28.7982 56.8656 28.8265 57.1237 28.8265C57.8989 28.8265 58.4893 28.5531 58.8957 28.007ZM53.6525 23.5548C53.6525 22.909 53.6309 22.1984 53.588 21.4236H55.4608C55.5306 21.7842 55.5792 22.1529 55.6061 22.5295C56.381 21.6847 57.2691 21.262 58.2701 21.262C58.8515 21.262 59.3896 21.4087 59.8848 21.7019C60.3797 21.9953 60.7795 22.4581 61.0835 23.0904C61.3877 23.7229 61.5397 24.5264 61.5397 25.5003C61.5397 26.5175 61.3661 27.3868 61.0189 28.1078C60.6717 28.8292 60.1861 29.3752 59.5618 29.7468C58.9376 30.1179 58.2162 30.3037 57.3984 30.3037C56.8061 30.3037 56.2221 30.2041 55.6464 30.0051V33.6054L53.6525 33.775V23.5548Z" fill="white"/>
<path d="M67.993 28.007C68.3994 27.4608 68.6026 26.6628 68.6026 25.6133C68.6026 24.6394 68.4344 23.9328 68.0981 23.4941C67.7616 23.0555 67.3136 22.8363 66.7538 22.8363C66.3664 22.8363 66.0085 22.9279 65.6802 23.1107C65.3517 23.2937 65.0397 23.5385 64.7437 23.8453V28.5116C64.9429 28.6083 65.1741 28.6851 65.4381 28.7414C65.7016 28.7982 65.9626 28.8265 66.221 28.8265C66.996 28.8265 67.5866 28.5531 67.993 28.007ZM62.7496 23.5548C62.7496 22.909 62.728 22.1984 62.685 21.4236H64.5581C64.628 21.7842 64.6765 22.1529 64.7034 22.5295C65.4784 21.6847 66.3664 21.262 67.3674 21.262C67.9488 21.262 68.4866 21.4087 68.9821 21.7019C69.477 21.9953 69.8768 22.4581 70.181 23.0904C70.4848 23.7229 70.637 24.5264 70.637 25.5003C70.637 26.5175 70.4632 27.3868 70.1162 28.1078C69.769 28.8292 69.2832 29.3752 68.6592 29.7468C68.0346 30.1179 67.3136 30.3037 66.4954 30.3037C65.9034 30.3037 65.3194 30.2041 64.7437 30.0051V33.6054L62.7496 33.775V23.5548Z" fill="white"/>
<path d="M74.3 29.5812C73.4386 29.1051 72.7768 28.4227 72.3141 27.5347C71.8509 26.6467 71.6197 25.5972 71.6197 24.3863C71.6197 23.0732 71.8861 21.9576 72.4189 21.0399C72.9517 20.1225 73.677 19.4336 74.5944 18.9733C75.5122 18.5132 76.5413 18.2831 77.6826 18.2831C78.3552 18.2831 78.9971 18.3572 79.608 18.5051C80.2187 18.6532 80.7877 18.8563 81.3154 19.1147L80.8066 20.6484C79.7464 20.1426 78.7346 19.8896 77.7715 19.8896C76.9586 19.8896 76.2469 20.0632 75.6362 20.4104C75.0253 20.7576 74.5501 21.2675 74.2112 21.9402C73.872 22.613 73.7026 23.4256 73.7026 24.3781C73.7026 25.2126 73.833 25.9524 74.0938 26.5982C74.3552 27.2441 74.7669 27.7555 75.3293 28.1321C75.8917 28.5089 76.6008 28.6971 77.4565 28.6971C77.844 28.6971 78.2315 28.6649 78.6189 28.6003C79.0064 28.5359 79.3698 28.4417 79.7088 28.3177V25.9524H77.0045V24.4024H81.6464V29.327C80.9789 29.639 80.2779 29.8788 79.5435 30.0454C78.8085 30.2121 78.0781 30.2955 77.3514 30.2955C76.1781 30.2955 75.1608 30.0577 74.3 29.5812Z" fill="white"/>
<path d="M87.5376 28.5195C87.9517 28.3206 88.2909 28.0728 88.5547 27.7769V26.1623C88.0109 26.1032 87.5669 26.0736 87.2227 26.0736C86.3992 26.0736 85.8298 26.2066 85.5154 26.4732C85.2002 26.7393 85.0429 27.0988 85.0429 27.5507C85.0429 27.9817 85.1573 28.3003 85.3861 28.5075C85.6149 28.7147 85.9256 28.8182 86.3184 28.8182C86.7165 28.8182 87.1229 28.7188 87.5376 28.5195ZM88.7323 30.1342C88.6621 29.795 88.6162 29.4104 88.5949 28.9798C88.2882 29.3459 87.8888 29.6566 87.396 29.9123C86.904 30.1678 86.348 30.2955 85.7291 30.2955C85.2285 30.2955 84.7725 30.1974 84.3605 30.0008C83.9493 29.8046 83.6221 29.5085 83.38 29.1128C83.1378 28.7174 83.0165 28.2345 83.0165 27.6637C83.0165 26.819 83.3205 26.1448 83.9288 25.6415C84.537 25.1383 85.5515 24.8868 86.9723 24.8868C87.5051 24.8868 88.0325 24.9246 88.5547 24.9998V24.8303C88.5547 24.0607 88.3904 23.5185 88.0621 23.2035C87.7338 22.8889 87.2629 22.7314 86.6496 22.7314C86.2242 22.7314 85.7696 22.7933 85.285 22.917C84.8008 23.0409 84.3754 23.1889 84.0096 23.3611L83.6947 21.9079C84.0499 21.7464 84.5181 21.5984 85.0994 21.4639C85.6808 21.3295 86.2941 21.262 86.94 21.262C87.6936 21.262 88.3339 21.3764 88.8613 21.605C89.3888 21.8339 89.8005 22.2269 90.0965 22.7837C90.3925 23.3409 90.5405 24.0904 90.5405 25.0321V28.4952C90.5405 28.856 90.5618 29.4025 90.605 30.1342H88.7323Z" fill="white"/>
<path d="M92.0704 28.0432V17.7503L94.0562 17.5889V27.688C94.0562 28.0595 94.1194 28.3217 94.2458 28.4752C94.3722 28.6283 94.5728 28.7054 94.8474 28.7054C94.9712 28.7054 95.1461 28.6759 95.3719 28.6166L95.6061 30.0454C95.4176 30.1208 95.1877 30.1814 94.9162 30.227C94.6442 30.2726 94.3872 30.2955 94.145 30.2955C92.7616 30.2955 92.0704 29.5449 92.0704 28.0432Z" fill="white"/>
<path d="M97.0352 28.0432V17.7503L99.021 17.5889V27.688C99.021 28.0595 99.0842 28.3217 99.2106 28.4752C99.3373 28.6283 99.5378 28.7054 99.8122 28.7054C99.936 28.7054 100.111 28.6759 100.337 28.6166L100.571 30.0454C100.383 30.1208 100.152 30.1814 99.881 30.227C99.609 30.2726 99.352 30.2955 99.1098 30.2955C97.7266 30.2955 97.0352 29.5449 97.0352 28.0432Z" fill="white"/>
<path d="M106.794 24.7657C106.754 24.0715 106.581 23.5508 106.269 23.2035C105.957 22.8566 105.538 22.6828 105.018 22.6828C104.511 22.6828 104.09 22.8579 103.754 23.2076C103.418 23.5576 103.197 24.0769 103.095 24.7657H106.794ZM108.738 26.0331H103.039C103.13 27.8577 103.999 28.7699 105.647 28.7699C106.055 28.7699 106.474 28.7201 106.903 28.6206C107.33 28.5208 107.741 28.3878 108.133 28.2208L108.57 29.5851C107.594 30.059 106.501 30.2955 105.285 30.2955C104.357 30.2955 103.578 30.1208 102.943 29.7709C102.306 29.4212 101.829 28.9179 101.509 28.2612C101.189 27.6049 101.029 26.8137 101.029 25.8878C101.029 24.9246 101.199 24.0956 101.538 23.4014C101.877 22.7071 102.349 22.1771 102.954 21.8111C103.559 21.4451 104.258 21.262 105.05 21.262C105.874 21.262 106.559 21.4545 107.111 21.8394C107.663 22.224 108.071 22.7368 108.338 23.3771C108.605 24.0178 108.738 24.7253 108.738 25.5003V26.0331Z" fill="white"/>
<path d="M110.247 23.6113C110.247 23.1324 110.223 22.4032 110.181 21.4236H112.047C112.079 21.6658 112.109 21.955 112.141 22.2915C112.17 22.6277 112.189 22.9008 112.199 23.1107C112.431 22.7287 112.658 22.4071 112.882 22.1462C113.106 21.8849 113.367 21.6725 113.666 21.5081C113.965 21.3441 114.303 21.262 114.687 21.262C114.994 21.262 115.255 21.2944 115.477 21.359L115.226 23.0866C115.034 23.0274 114.818 22.9977 114.581 22.9977C114.114 22.9977 113.703 23.1175 113.354 23.3571C113.005 23.5964 112.631 23.9906 112.231 24.5396V30.1342H110.247V23.6113Z" fill="white"/>
<path d="M116.597 33.6982C116.306 33.6473 116.066 33.5894 115.879 33.5249L116.242 32.0718C116.375 32.1092 116.546 32.1456 116.751 32.1806C116.954 32.2159 117.149 32.2331 117.333 32.2331C118.215 32.2331 118.877 31.6651 119.317 30.5297L119.447 30.2068L116.234 21.4236H118.373L119.989 26.3318C120.25 27.1716 120.421 27.8147 120.495 28.2612C120.647 27.6316 120.823 27.0019 121.029 26.3722L122.669 21.4236H124.677L121.474 30.2473C121.173 31.0814 120.845 31.754 120.495 32.2654C120.146 32.7766 119.733 33.156 119.258 33.4037C118.781 33.6511 118.207 33.775 117.533 33.775C117.199 33.775 116.887 33.7497 116.597 33.6982Z" fill="white"/>
<path d="M41.5938 7.30125H45.1479L45.0479 8.15965H42.6354V9.82205H44.9103V10.6263H42.6354V12.4679H45.177L45.0895 13.3346H41.5938V7.30125Z" fill="white"/>
<path d="M47.5977 10.2554L45.7228 7.30125H46.906L48.1769 9.47218L49.5145 7.30125H50.6644L48.806 10.2178L50.8185 13.3346H49.6185L48.1812 10.9596L46.7185 13.3346H45.5687L47.5977 10.2554Z" fill="white"/>
<path d="M54.1977 9.99485C54.4199 9.79378 54.5311 9.50951 54.5311 9.14285C54.5311 8.77058 54.4177 8.50285 54.1916 8.33885C53.9652 8.17485 53.6324 8.09298 53.1937 8.09298H52.6271V10.2346C52.8881 10.2762 53.0881 10.297 53.2271 10.297C53.6519 10.297 53.9756 10.1964 54.1977 9.99485ZM51.5852 7.30125H53.2103C53.974 7.30125 54.5588 7.45698 54.9644 7.76791C55.37 8.07911 55.5727 8.52898 55.5727 9.11778C55.5727 9.51778 55.4817 9.86738 55.2999 10.1658C55.1177 10.4644 54.8644 10.6938 54.5393 10.8532C54.2145 11.0132 53.8407 11.093 53.4185 11.093C53.1881 11.093 52.9241 11.0652 52.6271 11.0095V13.3346H51.5852V7.30125Z" fill="white"/>
<path d="M56.602 7.30125H57.6436V12.4428H60.1393L60.0519 13.3346H56.602V7.30125Z" fill="white"/>
<path d="M64.4228 12.2991C64.7145 12.1034 64.9324 11.834 65.0769 11.4908C65.2215 11.1479 65.2937 10.7554 65.2937 10.3138C65.2937 9.88044 65.2297 9.49457 65.102 9.15537C64.974 8.81644 64.77 8.54657 64.4895 8.34497C64.2089 8.14364 63.8479 8.04284 63.406 8.04284C62.9839 8.04284 62.6255 8.14497 62.3311 8.34924C62.0367 8.55324 61.8159 8.82711 61.6687 9.17004C61.5215 9.51324 61.4479 9.89164 61.4479 10.3055C61.4479 10.7415 61.5172 11.1319 61.6561 11.4762C61.7948 11.8207 62.0073 12.093 62.2937 12.293C62.5796 12.493 62.9337 12.593 63.3561 12.593C63.7756 12.593 64.1311 12.4948 64.4228 12.2991ZM61.7228 13.0388C61.2812 12.786 60.9436 12.4311 60.7103 11.974C60.4769 11.5172 60.3604 10.986 60.3604 10.3804C60.3604 9.74444 60.4844 9.18817 60.7332 8.71164C60.9817 8.23537 61.3401 7.86737 61.8081 7.60737C62.2761 7.34791 62.8281 7.21777 63.4644 7.21777C64.0727 7.21777 64.5964 7.34364 65.0353 7.59484C65.474 7.84657 65.8089 8.1999 66.0393 8.65537C66.27 9.1111 66.3852 9.63884 66.3852 10.2388C66.3852 10.886 66.2596 11.4487 66.0081 11.9263C65.7567 12.4039 65.3985 12.7722 64.9332 13.0303C64.4679 13.2887 63.9215 13.4179 63.2937 13.4179C62.6881 13.4179 62.1644 13.2916 61.7228 13.0388Z" fill="white"/>
<path d="M69.1812 10.1554C69.4338 10.1554 69.6575 10.1063 69.8519 10.0074C70.0463 9.90898 70.1978 9.77005 70.306 9.59085C70.4146 9.41165 70.4687 9.20391 70.4687 8.96791C70.4687 8.66525 70.3727 8.44365 70.1812 8.30338C69.9895 8.16311 69.7103 8.09298 69.3436 8.09298H68.5895V10.1554H69.1812ZM67.5479 7.30125H69.4353C70.1241 7.30125 70.6458 7.43885 70.9999 7.71378C71.354 7.98871 71.5311 8.38205 71.5311 8.89298C71.5311 9.21245 71.4671 9.49378 71.3394 9.73671C71.2116 9.97991 71.0532 10.1778 70.8644 10.3303C70.6754 10.4831 70.4812 10.597 70.2812 10.6722L72.1353 13.3346H70.9271L69.3562 10.9428H68.5895V13.3346H67.5479V7.30125Z" fill="white"/>
<path d="M72.9604 7.30125H76.5145L76.4145 8.15965H74.002V9.82205H76.2769V10.6263H74.002V12.4679H76.5436L76.4561 13.3346H72.9604V7.30125Z" fill="white"/>
<path d="M80.3812 7.30125H81.4228V13.3346H80.3812V7.30125Z" fill="white"/>
<path d="M84.1769 8.17218H82.306L82.3978 7.30125H87.0937L86.9978 8.17218H85.2185V13.3346H84.1769V8.17218Z" fill="white"/>
<path d="M94.3146 12.2991C94.606 12.1034 94.8241 11.834 94.9687 11.4908C95.1129 11.1479 95.1852 10.7554 95.1852 10.3138C95.1852 9.88044 95.1212 9.49457 94.9938 9.15537C94.8658 8.81644 94.6615 8.54657 94.3812 8.34497C94.1004 8.14364 93.7394 8.04284 93.2978 8.04284C92.8754 8.04284 92.5172 8.14497 92.2228 8.34924C91.9282 8.55324 91.7074 8.82711 91.5604 9.17004C91.413 9.51324 91.3394 9.89164 91.3394 10.3055C91.3394 10.7415 91.4087 11.1319 91.5479 11.4762C91.6866 11.8207 91.8991 12.093 92.1852 12.293C92.4713 12.493 92.8255 12.593 93.2479 12.593C93.6671 12.593 94.0228 12.4948 94.3146 12.2991ZM91.6146 13.0388C91.1727 12.786 90.8353 12.4311 90.602 11.974C90.3687 11.5172 90.2519 10.986 90.2519 10.3804C90.2519 9.74444 90.3762 9.18817 90.625 8.71164C90.8732 8.23537 91.2316 7.86737 91.6999 7.60737C92.1679 7.34791 92.7199 7.21777 93.3562 7.21777C93.9644 7.21777 94.4879 7.34364 94.9271 7.59484C95.3658 7.84657 95.7004 8.1999 95.9311 8.65537C96.1615 9.1111 96.277 9.63884 96.277 10.2388C96.277 10.886 96.1511 11.4487 95.8999 11.9263C95.6484 12.4039 95.29 12.7722 94.825 13.0303C94.3596 13.2887 93.8129 13.4179 93.1852 13.4179C92.5796 13.4179 92.0562 13.2916 91.6146 13.0388Z" fill="white"/>
<path d="M97.4394 7.30125H98.6353L101.619 11.9762C101.592 11.5319 101.582 11.122 101.582 10.7471V7.30125H102.547V13.3346H101.39L98.3604 8.58445C98.3908 9.12365 98.406 9.60125 98.406 10.0178V13.3346H97.4394V7.30125Z" fill="white"/>
<path fill-rule="evenodd" clip-rule="evenodd" d="M26.9422 7.33366H15.8638C10.6451 7.33366 8.73633 9.24246 8.73633 14.4612V25.5397C8.73633 30.7582 10.6451 32.667 15.8638 32.667H26.9387C32.1574 32.667 34.0697 30.7582 34.0697 25.5397V14.4612C34.0697 9.24246 32.1609 7.33366 26.9422 7.33366Z" fill="#C91C2E"/>
<path d="M19.7895 22.0254H20.8055L20.2959 20.8403L19.7895 22.0254ZM19.5394 22.6228L19.238 23.3124H18.5519L20.0111 20.0021H20.6039L22.0573 23.3124H21.3527L21.0551 22.6228H19.5394ZM30.5802 23.3101H31.2434V20.0021H30.5802V23.3101ZM27.941 21.8886H29.1631V21.2858H27.941V20.6077H29.7151V20.0042H27.278V23.3121H29.7791V22.7088H27.941V21.8886ZM25.3061 22.2796L24.554 20.002H24.0058L23.2538 22.2796L22.522 20.0036H21.8068L22.9613 23.314H23.5175L24.2706 21.1395L25.0234 23.314H25.5847L26.7362 20.0036H26.0394L25.3061 22.2796ZM17.5396 21.8978C17.5396 22.4364 17.2722 22.7241 16.7866 22.7241C16.2983 22.7241 16.0295 22.4282 16.0295 21.8749V20.004H15.3575V21.8978C15.3575 22.8296 15.8751 23.3638 16.7775 23.3638C17.6887 23.3638 18.2114 22.8194 18.2114 21.8704V20.002H17.5396V21.8978ZM13.754 20.0021H14.4258V23.3142H13.754V21.9692H12.2364V23.3142H11.5645V20.0021H12.2364V21.3382H13.754V20.0021Z" fill="white"/>
<path d="M21.4023 15.7852C19.0773 15.7852 17.1855 13.8934 17.1855 11.5683H17.7813C17.7813 13.565 19.4055 15.1894 21.4023 15.1894C23.3991 15.1894 25.0234 13.565 25.0234 11.5683H25.6191C25.6191 13.8934 23.7274 15.7852 21.4023 15.7852Z" fill="white"/>
</svg>
