<svg width="15" height="8" viewBox="0 0 15 8" fill="none" xmlns="http://www.w3.org/2000/svg">
<path d="M1.41173 0.305286C1.53884 0.46666 1.91835 0.948403 2.14436 1.22611C2.59704 1.78233 3.21557 2.52142 3.8828 3.25831C4.55339 3.99893 5.25786 4.72022 5.88369 5.25046C6.1975 5.51634 6.47316 5.71838 6.70064 5.84987C6.91458 5.97355 7.04096 5.99927 7.04096 5.99927C7.04096 5.99927 7.16363 5.97355 7.37756 5.84988C7.60504 5.71838 7.8807 5.51635 8.19451 5.25047C8.82034 4.72022 9.52481 3.99892 10.1954 3.2583C10.8626 2.5214 11.4812 1.7823 11.9338 1.22608C12.1599 0.948368 12.5388 0.467305 12.6659 0.305929C12.9221 -0.0275935 13.4122 -0.0995297 13.7601 0.146103C14.1079 0.391736 14.1822 0.861234 13.926 1.19476L13.924 1.1973C13.7907 1.36655 13.3976 1.86557 13.167 2.14892C12.7041 2.7177 12.0675 3.47861 11.3766 4.24171C10.689 5.00109 9.93225 5.77979 9.23029 6.37454C8.8802 6.67116 8.52532 6.93788 8.18518 7.1345C7.8665 7.31872 7.46303 7.5 7.03909 7.5C6.61517 7.5 6.2117 7.31871 5.89302 7.1345C5.55288 6.93787 5.19801 6.67116 4.84792 6.37454C4.14595 5.77979 3.38918 5.0011 2.70161 4.24173C2.01066 3.47863 1.37407 2.71774 0.911164 2.14896C0.680395 1.86541 0.287315 1.36638 0.15427 1.19747L0.152549 1.19528C-0.103613 0.861762 -0.0296788 0.391787 0.318136 0.146153C0.66594 -0.0994739 1.15556 -0.0282082 1.41173 0.305286Z" fill="#0D0D0D"/>
</svg>
