<svg width="18" height="18" viewBox="0 0 18 18" fill="none" xmlns="http://www.w3.org/2000/svg">
<g clip-path="url(#clip0_3_1529)">
<path d="M9 18C13.9706 18 18 13.9706 18 9C18 4.02944 13.9706 0 9 0C4.02944 0 0 4.02944 0 9C0 13.9706 4.02944 18 9 18Z" fill="#F0F0F0"/>
<path d="M9.00014 -0.000236511C5.13046 -0.000236511 1.83157 2.44214 0.559937 5.86935H17.4404C16.1687 2.44214 12.8698 -0.000236511 9.00014 -0.000236511Z" fill="#D80027"/>
<path d="M9.00014 18.0002C12.8698 18.0002 16.1687 15.5579 17.4403 12.1307H0.559937C1.83157 15.5579 5.13046 18.0002 9.00014 18.0002Z" fill="black"/>
<path d="M12.1304 8.02171H9.78257C9.78257 7.5895 9.43217 7.2391 8.99996 7.2391C8.56775 7.2391 8.21734 7.5895 8.21734 8.02171H5.86951C5.86951 8.45396 6.24599 8.80432 6.67821 8.80432H6.65212C6.65212 9.23657 7.00249 9.58694 7.43473 9.58694C7.43473 10.0192 7.7851 10.3696 8.21734 10.3696H9.78257C10.2148 10.3696 10.5652 10.0192 10.5652 9.58694C10.9974 9.58694 11.3478 9.23657 11.3478 8.80432H11.3217C11.754 8.80432 12.1304 8.45396 12.1304 8.02171Z" fill="#FF9811"/>
</g>
<defs>
<clipPath id="clip0_3_1529">
<rect width="18" height="18" fill="white"/>
</clipPath>
</defs>
</svg>
