<svg width="27" height="27" viewBox="0 0 27 27" fill="none" xmlns="http://www.w3.org/2000/svg">
<path d="M13.3333 26.6667C11.4667 26.6667 9.7222 26.3167 8.1 25.6167C6.4778 24.9167 5.06667 23.9667 3.86667 22.7667C2.66667 21.5667 1.72222 20.15 1.03333 18.5167C0.344447 16.8833 0 15.1333 0 13.2667C0 11.4 0.344447 9.66113 1.03333 8.05C1.72222 6.43887 2.66667 5.03333 3.86667 3.83333C5.06667 2.63333 6.4778 1.69445 8.1 1.01667C9.7222 0.338887 11.4667 0 13.3333 0C15.2 0 16.9445 0.338887 18.5667 1.01667C20.1889 1.69445 21.6 2.63333 22.8 3.83333C24 5.03333 24.9445 6.43887 25.6333 8.05C26.3222 9.66113 26.6667 11.4 26.6667 13.2667C26.6667 15.1333 26.3222 16.8833 25.6333 18.5167C24.9445 20.15 24 21.5667 22.8 22.7667C21.6 23.9667 20.1889 24.9167 18.5667 25.6167C16.9445 26.3167 15.2 26.6667 13.3333 26.6667ZM13.3333 24.7333C14.1111 23.9333 14.7611 23.0167 15.2833 21.9833C15.8055 20.95 16.2333 19.7222 16.5667 18.3H10.1333C10.4445 19.6333 10.8611 20.8333 11.3833 21.9C11.9055 22.9667 12.5555 23.9111 13.3333 24.7333ZM10.5 24.3333C9.94447 23.4889 9.46667 22.5778 9.06667 21.6C8.66667 20.6222 8.33333 19.5222 8.06667 18.3H3.06667C3.91111 19.8778 4.88887 21.1167 6 22.0167C7.11113 22.9167 8.61113 23.6889 10.5 24.3333ZM16.2 24.3C17.8 23.7889 19.2389 23.0222 20.5167 22C21.7945 20.9778 22.8222 19.7445 23.6 18.3H18.6333C18.3445 19.5 18.0055 20.5889 17.6167 21.5667C17.2278 22.5445 16.7555 23.4555 16.2 24.3ZM2.4 16.3H7.7C7.63333 15.7 7.59447 15.1611 7.58333 14.6833C7.5722 14.2055 7.56667 13.7333 7.56667 13.2667C7.56667 12.7111 7.5778 12.2167 7.6 11.7833C7.6222 11.35 7.66667 10.8667 7.73333 10.3333H2.4C2.24445 10.8667 2.13889 11.3445 2.08333 11.7667C2.02778 12.1889 2 12.6889 2 13.2667C2 13.8445 2.02778 14.3611 2.08333 14.8167C2.13889 15.2722 2.24445 15.7667 2.4 16.3ZM9.76667 16.3H16.9333C17.0222 15.6111 17.0778 15.05 17.1 14.6167C17.1222 14.1833 17.1333 13.7333 17.1333 13.2667C17.1333 12.8222 17.1222 12.3945 17.1 11.9833C17.0778 11.5722 17.0222 11.0222 16.9333 10.3333H9.76667C9.6778 11.0222 9.6222 11.5722 9.6 11.9833C9.5778 12.3945 9.56667 12.8222 9.56667 13.2667C9.56667 13.7333 9.5778 14.1833 9.6 14.6167C9.6222 15.05 9.6778 15.6111 9.76667 16.3ZM18.9333 16.3H24.2667C24.4222 15.7667 24.5278 15.2722 24.5833 14.8167C24.6389 14.3611 24.6667 13.8445 24.6667 13.2667C24.6667 12.6889 24.6389 12.1889 24.5833 11.7667C24.5278 11.3445 24.4222 10.8667 24.2667 10.3333H18.9667C19.0333 11.1111 19.0778 11.7055 19.1 12.1167C19.1222 12.5278 19.1333 12.9111 19.1333 13.2667C19.1333 13.7555 19.1167 14.2167 19.0833 14.65C19.05 15.0833 19 15.6333 18.9333 16.3ZM18.6 8.33333H23.6C22.8667 6.8 21.8611 5.5222 20.5833 4.5C19.3055 3.47778 17.8333 2.75555 16.1667 2.33333C16.7222 3.15555 17.1945 4.04447 17.5833 5C17.9722 5.95553 18.3111 7.06667 18.6 8.33333ZM10.1333 8.33333H16.6C16.3555 7.15553 15.9445 6.01667 15.3667 4.91667C14.7889 3.81667 14.1111 2.84445 13.3333 2C12.6222 2.6 12.0222 3.38889 11.5333 4.36667C11.0445 5.34447 10.5778 6.66667 10.1333 8.33333ZM3.06667 8.33333H8.1C8.34447 7.13333 8.65553 6.06113 9.03333 5.11667C9.41113 4.1722 9.88887 3.25555 10.4667 2.36667C8.8 2.78889 7.34447 3.5 6.1 4.5C4.85553 5.5 3.84445 6.7778 3.06667 8.33333Z" fill="black"/>
</svg>
