<svg width="19" height="18" viewBox="0 0 19 18" fill="none" xmlns="http://www.w3.org/2000/svg">
<path d="M17.4167 7.41675L9.81917 1.01842C9.61333 0.845065 9.35286 0.75 9.08375 0.75C8.81464 0.75 8.55417 0.845065 8.34833 1.01842L0.75 7.41675" fill="#999999"/>
<path d="M17.4167 7.41675L9.81917 1.01842C9.61333 0.845065 9.35286 0.75 9.08375 0.75C8.81464 0.75 8.55417 0.845065 8.34833 1.01842L0.75 7.41675" stroke="#999999" stroke-width="1.5" stroke-linecap="round" stroke-linejoin="round"/>
<path d="M16.1667 6.5835V11.5835C16.1667 13.9402 16.1667 15.1193 15.4342 15.851C14.7025 16.5835 13.5233 16.5835 11.1667 16.5835H7C4.64333 16.5835 3.46417 16.5835 2.7325 15.851C2 15.1193 2 13.9402 2 11.5835V6.5835" stroke="#999999" stroke-width="1.5" stroke-linecap="round" stroke-linejoin="round"/>
<path d="M11.5859 16.5837V12.417C11.5859 11.2387 11.5859 10.6495 11.2193 10.2837C10.8534 9.91699 10.2643 9.91699 9.08594 9.91699C7.9076 9.91699 7.31844 9.91699 6.9526 10.2837C6.58594 10.6487 6.58594 11.2378 6.58594 12.417V16.5837" fill="white"/>
<path d="M11.5859 16.5837V12.417C11.5859 11.2387 11.5859 10.6495 11.2193 10.2837C10.8534 9.91699 10.2643 9.91699 9.08594 9.91699C7.9076 9.91699 7.31844 9.91699 6.9526 10.2837C6.58594 10.6487 6.58594 11.2378 6.58594 12.417V16.5837" fill="#999999"/>
<path d="M11.5859 16.5837V12.417C11.5859 11.2387 11.5859 10.6495 11.2193 10.2837C10.8534 9.91699 10.2643 9.91699 9.08594 9.91699C7.9076 9.91699 7.31844 9.91699 6.9526 10.2837C6.58594 10.6487 6.58594 11.2378 6.58594 12.417V16.5837" stroke="#999999" stroke-width="1.5" stroke-linecap="round" stroke-linejoin="round"/>
</svg>
