<svg width="19" height="19" viewBox="0 0 19 19" fill="none" xmlns="http://www.w3.org/2000/svg">
<g clip-path="url(#clip0_2951_14548)">
<path fill-rule="evenodd" clip-rule="evenodd" d="M0 0V18.6469H18.6469V0H0Z" fill="#2E42A5"/>
<mask id="mask0_2951_14548" style="mask-type:luminance" maskUnits="userSpaceOnUse" x="0" y="0" width="19" height="19">
<path fill-rule="evenodd" clip-rule="evenodd" d="M0 0V18.6469H18.6469V0H0Z" fill="white"/>
</mask>
<g mask="url(#mask0_2951_14548)">
<path d="M-2.07617 17.3152L2.02731 19.629L18.7396 2.51656L20.9044 -0.922243L16.5165 -1.69531L9.69993 5.67876L4.21308 10.6474L-2.07617 17.3152Z" fill="white"/>
<path d="M-1.51407 18.9381L0.577302 20.2806L20.1274 -1.24023H17.1917L-1.51465 18.9373L-1.51407 18.9381Z" fill="#F50100"/>
<path d="M20.7232 17.3152L16.6198 19.629L-0.0925343 2.51656L-2.25732 -0.922243L2.13053 -1.69531L8.94714 5.67876L14.434 10.6474L20.7232 17.3152Z" fill="white"/>
<path d="M20.5834 18.4787L18.4932 19.8221L10.168 10.6074L7.69957 9.57796L-2.46533 -0.910156H0.469809L10.6289 9.32933L13.3274 10.5639L20.5834 18.4795V18.4787Z" fill="#F50100"/>
<path fill-rule="evenodd" clip-rule="evenodd" d="M11.5251 -1.55273H7.12214V6.21681H-1.14893V12.4324H7.12214V20.202H11.5251V12.4324H19.8288V6.21681H11.5251V-1.55273Z" fill="#F50100"/>
<mask id="mask1_2951_14548" style="mask-type:luminance" maskUnits="userSpaceOnUse" x="-2" y="-2" width="22" height="23">
<path fill-rule="evenodd" clip-rule="evenodd" d="M11.5251 -1.55273H7.12214V6.21681H-1.14893V12.4324H7.12214V20.202H11.5251V12.4324H19.8288V6.21681H11.5251V-1.55273Z" fill="white"/>
</mask>
<g mask="url(#mask1_2951_14548)">
<path d="M7.12205 -1.55351V-3.10742H5.95662V-1.55351H7.12205ZM11.5251 -1.55351H12.6905V-3.10742H11.5251V-1.55351ZM7.12205 6.21603V7.76994H8.28748V6.21603H7.12205ZM-1.14902 6.21603V4.66212H-2.31445V6.21603H-1.14902ZM-1.14902 12.4317H-2.31445V13.9856H-1.14902V12.4317ZM7.12205 12.4317H8.28748V10.8778H7.12205V12.4317ZM7.12205 20.2012H5.95662V21.7551H7.12205V20.2012ZM11.5251 20.2012V21.7551H12.6905V20.2012H11.5251ZM11.5251 12.4317V10.8778H10.3596V12.4317H11.5251ZM19.8288 12.4317V13.9856H20.9942V12.4317H19.8288ZM19.8288 6.21603H20.9942V4.66212H19.8288V6.21603ZM11.5251 6.21603H10.3596V7.76994H11.5251V6.21603ZM7.12205 0.000396729H11.5251V-3.10742H7.12205V0.000396729ZM8.28748 6.21603V-1.55351H5.95662V6.21603H8.28748ZM-1.14902 7.76994H7.12205V4.66212H-1.14902V7.76994ZM0.0164108 12.4317V6.21603H-2.31445V12.4317H0.0164108ZM7.12205 10.8778H-1.14902V13.9856H7.12205V10.8778ZM8.28748 20.2012V12.4317H5.95662V20.2012H8.28748ZM11.5251 18.6473H7.12205V21.7551H11.5251V18.6473ZM10.3596 12.4317V20.2012H12.6905V12.4317H10.3596ZM19.8288 10.8778H11.5251V13.9856H19.8288V10.8778ZM18.6633 6.21603V12.4317H20.9942V6.21603H18.6633ZM11.5251 7.76994H19.8288V4.66212H11.5251V7.76994ZM10.3596 -1.55351V6.21603H12.6905V-1.55351H10.3596Z" fill="white"/>
</g>
</g>
</g>
<defs>
<clipPath id="clip0_2951_14548">
<rect width="18.6469" height="18.6469" rx="9.32346" fill="white"/>
</clipPath>
</defs>
</svg>
